<svg width="4187" height="1487" viewBox="0 0 4187 1487" fill="none" xmlns="http://www.w3.org/2000/svg">
<g clip-path="url(#clip0_24_29)">
<g clip-path="url(#clip1_24_29)">
<path d="M931.004 967.532C922.365 912.984 959.581 861.76 1014.13 853.12L1409.21 790.546L1487.42 1284.39L993.578 1362.61L931.004 967.532Z" fill="#60ACE0"/>
<path d="M821.5 276.151L1315.34 197.933L1393.56 691.778L998.486 754.351C943.938 762.991 892.714 725.774 884.074 671.226L821.5 276.151Z" fill="#707175"/>
<path d="M322.748 962.624L717.823 900.05C772.372 891.411 823.596 928.627 832.236 983.176L894.809 1378.25L400.965 1456.47L322.748 962.624Z" fill="#043F79"/>
<path d="M109.504 894.747L226.633 732.931L639.98 667.464L574.747 255.598L691.382 93.8606L785.242 686.474C793.882 741.022 756.666 792.246 702.117 800.886L109.504 894.747Z" fill="#4C4B50"/>
</g>
<path d="M1725.56 553.999H1779.52V1005H1725.56V553.999ZM1882.67 553.999H2238.14V601.606H2087.38V1005H2033.42V601.606H1882.67V553.999ZM2385.72 595.259V746.65C2389.74 746.439 2396.72 746.333 2406.67 746.333C2416.61 746.121 2424.33 746.016 2429.83 746.016C2435.34 745.804 2443.06 745.381 2453 744.746C2462.95 743.9 2470.88 743.053 2476.81 742.207C2482.94 741.149 2490.24 739.668 2498.71 737.764C2507.38 735.648 2514.36 733.32 2519.65 730.781C2525.16 728.031 2530.87 724.645 2536.79 720.625C2542.93 716.393 2547.69 711.738 2551.08 706.66C2554.46 701.582 2557.21 695.552 2559.33 688.569C2561.65 681.375 2562.82 673.547 2562.82 665.083C2562.82 658.735 2562.18 652.705 2560.91 646.992C2559.64 641.279 2557 635.143 2552.98 628.584C2548.96 622.025 2543.78 616.418 2537.43 611.763C2531.08 607.108 2522.3 603.193 2511.08 600.02C2500.08 596.846 2487.28 595.259 2472.68 595.259H2385.72ZM2385.72 788.545V957.393H2469.83C2477.44 957.393 2483.79 957.393 2488.87 957.393C2494.16 957.181 2501.67 956.546 2511.4 955.488C2521.14 954.219 2529.39 952.632 2536.16 950.728C2543.14 948.612 2550.86 945.544 2559.33 941.523C2567.79 937.292 2574.56 932.319 2579.64 926.606C2584.93 920.894 2589.37 913.594 2592.97 904.707C2596.57 895.609 2598.37 885.347 2598.37 873.921C2598.37 845.78 2587.47 823.774 2565.67 807.905C2543.88 792.036 2514.58 784.102 2477.76 784.102C2473.74 784.102 2443.06 785.583 2385.72 788.545ZM2331.76 553.999H2490.77C2506.22 553.999 2520.29 555.692 2532.98 559.077C2545.89 562.251 2556.47 566.377 2564.72 571.455C2573.19 576.533 2580.59 582.563 2586.94 589.546C2593.5 596.528 2598.47 603.299 2601.86 609.858C2605.24 616.418 2607.99 623.4 2610.11 630.806C2612.22 638.211 2613.49 644.347 2613.92 649.214C2614.55 653.869 2614.87 658.312 2614.87 662.544C2614.87 680.952 2608.63 699.36 2596.14 717.769C2583.66 735.965 2570.44 747.708 2556.47 752.998C2584.4 758.076 2607.25 771.618 2625.03 793.623C2643.01 815.417 2652 840.278 2652 868.208C2652 874.767 2651.37 881.644 2650.1 888.838C2649.04 896.032 2646.82 904.178 2643.43 913.276C2640.05 922.375 2635.71 931.05 2630.42 939.302C2625.13 947.554 2617.94 955.806 2608.84 964.058C2599.74 972.098 2589.27 979.08 2577.42 985.005C2565.78 990.929 2551.39 995.796 2534.25 999.604C2517.33 1003.2 2498.71 1005 2478.39 1005H2331.76V553.999ZM2893.21 553.999H2954.47L3114.75 1005H3060.16L3014.45 873.921H2828.47L2782.76 1005H2732.94L2893.21 553.999ZM2921.46 606.685L2844.65 826.631H2997.95L2921.46 606.685ZM3222.97 553.999H3291.21L3536.87 931.367V553.999H3590.82V1005H3522.58L3276.93 626.997V1005H3222.97V553.999ZM3749.83 553.999H3803.79V1005H3749.83V553.999ZM4002.47 553.999H4070.07L3879.32 769.185L4082.13 1005H4012.62L3811.4 773.628L4002.47 553.999Z" fill="#043F79"/>
</g>
<defs>
<clipPath id="clip0_24_29">
<rect width="4187" height="1487" fill="white"/>
</clipPath>
<clipPath id="clip1_24_29">
<rect width="1300" height="1300" fill="white" transform="translate(0 203.365) rotate(-9)"/>
</clipPath>
</defs>
</svg>
